{
    "patcher": {
        "fileversion": 1,
        "appversion": {
            "major": 9,
            "minor": 1,
            "revision": 4,
            "architecture": "x64",
            "modernui": 1
        },
        "classnamespace": "box",
        "rect": [ 75.0, 119.0, 312.0, 256.0 ],
        "boxes": [
            {
                "box": {
                    "comment": "(signal) Parameter",
                    "id": "obj-2",
                    "index": 1,
                    "maxclass": "outlet",
                    "numinlets": 1,
                    "numoutlets": 0,
                    "patching_rect": [ 126.0, 158.0, 25.0, 25.0 ]
                }
            },
            {
                "box": {
                    "fontname": "Arial Bold",
                    "fontsize": 10.0,
                    "id": "obj-7",
                    "maxclass": "newobj",
                    "numinlets": 2,
                    "numoutlets": 1,
                    "outlettype": [ "" ],
                    "patching_rect": [ 126.0, 94.0, 62.0, 18.0 ],
                    "text": "pack 0. 20."
                }
            },
            {
                "box": {
                    "fontname": "Arial Bold",
                    "fontsize": 10.0,
                    "id": "obj-5",
                    "maxclass": "newobj",
                    "numinlets": 2,
                    "numoutlets": 2,
                    "outlettype": [ "signal", "bang" ],
                    "patching_rect": [ 126.0, 125.0, 48.0, 18.0 ],
                    "text": "line~ #1"
                }
            },
            {
                "box": {
                    "comment": "(float) Parameter",
                    "id": "obj-1",
                    "index": 1,
                    "maxclass": "inlet",
                    "numinlets": 0,
                    "numoutlets": 1,
                    "outlettype": [ "" ],
                    "patching_rect": [ 126.0, 59.0, 25.0, 25.0 ]
                }
            }
        ],
        "lines": [
            {
                "patchline": {
                    "destination": [ "obj-7", 0 ],
                    "source": [ "obj-1", 0 ]
                }
            },
            {
                "patchline": {
                    "destination": [ "obj-2", 0 ],
                    "source": [ "obj-5", 0 ]
                }
            },
            {
                "patchline": {
                    "destination": [ "obj-5", 0 ],
                    "source": [ "obj-7", 0 ]
                }
            }
        ]
    }
}